HIERARCHY
ROOT SpineBase
{
  OFFSET 0.000000 0.000000 0.000000
  CHANNELS 6 Xposition Yposition Zposition Zrotation Xrotation Yrotation
  JOINT SpineMid
  {
    OFFSET 0.000000 28.084539 0.000000
    CHANNELS 3 Zrotation Xrotation Yrotation
    JOINT SpineShoulder
    {
      OFFSET 0.026748 20.849347 -0.736363
      CHANNELS 3 Zrotation Xrotation Yrotation
      JOINT Neck
      {
        OFFSET -0.004338 6.910978 -0.545684
        CHANNELS 3 Zrotation Xrotation Yrotation
        JOINT Head
        {
          OFFSET -2.993805 12.045051 1.233375
          CHANNELS 3 Zrotation Xrotation Yrotation
          End Site
          {
            OFFSET 0 0 0
          }
        }
      }
      JOINT ShoulderLeft
      {
        OFFSET -13.015884 -4.446122 8.650913
        CHANNELS 3 Zrotation Xrotation Yrotation
        JOINT ElbowLeft
        {
          OFFSET -1.855720 -19.645657 2.369233
          CHANNELS 3 Zrotation Xrotation Yrotation
          JOINT WristLeft
          {
            OFFSET -1.040170 -19.151736 -2.685836
            CHANNELS 3 Zrotation Xrotation Yrotation
            JOINT HandLeft
            {
              OFFSET 1.149519 -6.854421 1.845987
              CHANNELS 3 Zrotation Xrotation Yrotation
              JOINT HandTipLeft
              {
                OFFSET 0.462837 -6.306573 1.683256
                CHANNELS 3 Zrotation Xrotation Yrotation
                End Site
                {
                  OFFSET 0 0 0
                }
              }
              JOINT ThumbLeft
              {
                OFFSET 2.733074 0.514098 -9.428877
                CHANNELS 3 Zrotation Xrotation Yrotation
                End Site
                {
                  OFFSET 0 0 0
                }
              }
            }
          }
        }
      }
      JOINT ShoulderRight
      {
        OFFSET 10.019950 -4.497483 -12.062097
        CHANNELS 3 Zrotation Xrotation Yrotation
        JOINT ElbowRight
        {
          OFFSET 4.237273 -19.279645 -5.026161
          CHANNELS 3 Zrotation Xrotation Yrotation
          JOINT WristRight
          {
            OFFSET -0.299013 -18.528889 -2.014128
            CHANNELS 3 Zrotation Xrotation Yrotation
            JOINT HandRight
            {
              OFFSET 0.267572 -6.183512 0.038947
              CHANNELS 3 Zrotation Xrotation Yrotation
              JOINT HandTipRight
              {
                OFFSET 1.156173 -7.055492 1.005130
                CHANNELS 3 Zrotation Xrotation Yrotation
                End Site
                {
                  OFFSET 0 0 0
                }
              }
              JOINT ThumbRight
              {
                OFFSET -3.262696 -1.014326 -0.260085
                CHANNELS 3 Zrotation Xrotation Yrotation
                End Site
                {
                  OFFSET 0 0 0
                }
              }
            }
          }
        }
      }
    }
  }
  JOINT HipLeft
  {
    OFFSET -4.551508 0.202225 1.522010
    CHANNELS 3 Zrotation Xrotation Yrotation
    JOINT KneeLeft
    {
      OFFSET 6.586326 -27.954323 8.710775
      CHANNELS 3 Zrotation Xrotation Yrotation
      JOINT AnkleLeft
      {
        OFFSET 10.045031 -30.047254 7.878155
        CHANNELS 3 Zrotation Xrotation Yrotation
        JOINT FootLeft
        {
          OFFSET -2.391169 -8.696639 -0.203651
          CHANNELS 3 Zrotation Xrotation Yrotation
          End Site
          {
            OFFSET 0 0 0
          }
        }
      }
    }
  }
  JOINT HipRight
  {
    OFFSET 4.328020 1.004220 -7.787019
    CHANNELS 3 Zrotation Xrotation Yrotation
    JOINT KneeRight
    {
      OFFSET 11.475867 -30.490271 8.061518
      CHANNELS 3 Zrotation Xrotation Yrotation
      JOINT AnkleRight
      {
        OFFSET 7.725920 -31.700975 5.888779
        CHANNELS 3 Zrotation Xrotation Yrotation
        JOINT FootRight
        {
          OFFSET -5.257665 -3.280872 -8.820876
          CHANNELS 3 Zrotation Xrotation Yrotation
          End Site
          {
            OFFSET 0 0 0
          }
        }
      }
    }
  }
}
MOTION
Frames: 16
Frame Time: 0.033333
16.305085 69.481900 336.739124 -0.000000 0.000000 46.352720 0.000000 0.000000 -46.352720 -0.000000 0.000000 0.000000 -0.000000 0.000000 0.000000 0.000000 0.000000 0.000000 -0.000000 0.000000 0.000000 -0.000000 0.000000 0.000000 -0.000000 0.000000 0.000000 -0.000000 0.000000 0.000000 0.000000 0.000000 0.000000 0.000000 0.000000 0.000000 -0.000000 0.000000 0.000000 -0.000000 0.000000 0.000000 -0.000000 0.000000 0.000000 -0.000000 0.000000 0.000000 0.000000 0.000000 0.000000 0.000000 0.000000 0.000000 0.000000 0.000000 -46.352720 -0.000000 0.000000 0.000000 -0.000000 0.000000 0.000000 0.000000 0.000000 0.000000 0.000000 0.000000 -46.352720 -0.000000 0.000000 0.000000 -0.000000 0.000000 0.000000 0.000000 0.000000 0.000000
15.788560 69.299356 336.916934 -0.596628 -0.267790 45.101058 0.610822 -0.233605 -45.101207 -0.000000 0.000000 0.000000 -0.000000 0.000000 0.000000 0.000000 0.000000 0.000000 0.859443 2.965305 -0.199524 0.836563 -5.945225 0.213815 0.667831 11.894966 1.974103 -7.851458 -7.740806 -4.440325 0.000000 0.000000 0.000000 0.000000 0.000000 0.000000 0.484028 -0.669236 -0.270605 0.316454 2.910362 0.126821 -9.332056 -0.466267 -0.070060 -0.245427 -0.122653 -1.031400 0.000000 0.000000 0.000000 0.000000 0.000000 0.000000 1.580456 -0.959341 -44.677366 -1.199704 -0.165782 -0.415482 -1.355687 2.314037 -0.575062 0.000000 0.000000 0.000000 1.756144 -0.460239 -44.593783 -0.974682 -0.642735 -0.505956 -0.000000 0.000000 0.000000 0.000000 0.000000 0.000000
15.411026 69.164488 337.097923 -0.996755 -0.536450 44.077578 1.089223 -0.308020 -44.079316 -0.000000 0.000000 0.000000 -1.125017 -0.269092 0.045800 0.000000 0.000000 0.000000 1.406036 5.050950 -0.372274 0.938593 -10.538175 0.545845 1.245844 22.523380 3.188764 -13.929729 -13.181133 -9.337392 0.000000 0.000000 0.000000 0.000000 0.000000 0.000000 1.238296 -1.123047 -0.557624 -1.186435 5.265735 0.500192 -16.444863 -1.497505 -0.729737 -0.125283 0.471565 -1.858115 0.000000 0.000000 0.000000 0.000000 0.000000 0.000000 2.843692 -1.465099 -43.319311 -2.070028 -0.362208 -0.739399 -2.459154 4.716329 -1.130820 0.000000 0.000000 0.000000 3.201104 -0.582261 -43.135007 -2.021052 -2.144341 -1.227197 0.273000 0.906520 0.269727 0.000000 0.000000 0.000000
15.172484 69.077296 337.282090 -1.203041 -0.806781 43.287991 1.428851 -0.237704 -43.293497 -0.000000 0.000000 0.000000 -1.379099 -0.281687 0.068039 0.000000 0.000000 0.000000 1.637111 6.274482 -0.489461 0.383930 -13.992109 0.818416 1.432716 31.537583 3.945507 -17.603191 -16.267809 -13.427444 0.000000 0.000000 0.000000 0.000000 0.000000 0.000000 2.266474 -1.366757 -0.863219 -4.396828 7.288666 1.195761 -21.987035 -3.181653 -2.013084 0.332646 1.768171 -2.402033 0.000000 0.000000 0.000000 0.000000 0.000000 0.000000 3.766150 -1.561306 -42.296777 -2.619178 -0.594515 -0.973611 -3.266563 7.140182 -1.669739 0.000000 0.000000 0.000000 4.302465 -0.402580 -42.001684 -2.682874 -3.001305 -1.699924 0.400717 1.213427 0.366340 0.000000 0.000000 0.000000
15.072933 69.037779 337.469436 -1.216984 -1.079623 42.735483 0.736207 0.207123 -42.773423 0.816593 0.428272 0.025243 -1.427165 -0.212517 0.090975 0.000000 0.000000 0.000000 1.550253 6.650635 -0.536474 -0.878163 -16.470208 0.948523 0.864193 38.767544 4.589868 -18.193276 -17.207210 -15.587512 0.000000 0.000000 0.000000 0.000000 0.000000 0.000000 3.574211 -1.404031 -1.192463 -9.527913 9.105242 2.306224 -26.352418 -5.631648 -4.141108 1.094104 3.856254 -2.577135 0.000000 0.000000 0.000000 0.000000 0.000000 0.000000 4.334476 -1.280158 -41.618286 -3.703543 -0.803583 -1.339550 -2.929903 9.458897 -1.989996 0.000000 0.000000 0.000000 5.040178 0.047814 -41.207759 -3.091977 -3.715198 -2.065557 0.524281 1.425838 0.438903 0.000000 0.000000 0.000000
15.112374 69.045938 337.659960 -1.038872 -1.355824 42.421772 0.674017 0.372621 -42.459739 0.792385 0.626441 0.022855 -1.268384 -0.061011 0.114365 0.000000 0.000000 0.000000 1.142964 6.182235 -0.512235 -3.007934 -18.096476 0.917212 -0.969380 44.051918 5.491989 -15.133542 -16.037352 -14.904897 0.000000 0.000000 0.000000 0.000000 0.000000 0.000000 5.168460 -1.237322 -1.553291 -17.115039 10.767631 3.976575 -29.745726 -8.971940 -7.557851 2.066923 6.933155 -2.221481 0.000000 0.000000 0.000000 0.000000 0.000000 0.000000 4.544223 -0.640794 -41.284647 -3.674420 -1.148819 -1.424733 -3.033928 11.750348 -2.488482 0.000000 0.000000 0.000000 5.406046 0.745589 -40.757540 -3.240278 -4.285034 -2.316404 0.644742 1.544645 0.488099 0.000000 0.000000 0.000000
15.271391 69.104054 337.913454 -0.612924 -1.709130 42.299977 0.427405 0.683636 -42.330827 0.756523 0.916184 0.019501 -0.952708 0.126037 0.130185 0.000000 0.000000 0.000000 1.293173 2.710976 -0.131279 -6.909589 -19.910019 0.691775 -12.933123 40.443326 6.413643 -1.036533 0.295813 -2.874519 0.000000 0.000000 0.000000 0.000000 0.000000 0.000000 7.382085 -1.159689 -2.082962 -30.450665 12.811107 7.206465 -34.481499 -13.714457 -14.715785 5.337047 14.122129 0.553188 0.000000 0.000000 0.000000 0.000000 0.000000 0.000000 4.511764 0.476963 -41.210388 -3.397189 -1.666106 -1.477132 -1.683719 18.831406 -4.393142 0.000000 0.000000 0.000000 5.560851 1.929585 -40.531164 -3.151370 -5.007752 -2.562033 0.765059 1.655919 0.535221 0.000000 0.000000 0.000000
15.563720 69.198127 338.175035 -0.059000 -2.098977 42.263510 0.188646 0.975230 -42.275010 0.246086 0.470434 -0.009086 0.328726 0.780128 0.024221 0.000000 0.000000 0.000000 0.328726 0.780128 0.024221 -12.139010 -20.221556 0.658468 -19.034201 42.536082 8.665010 8.969005 9.237283 4.810360 0.000000 0.000000 0.000000 0.000000 0.000000 0.000000 10.333918 0.108529 -2.767011 -47.318103 14.128584 11.264666 -39.101792 -18.203710 -25.761270 4.597798 20.415916 4.301952 0.000000 0.000000 0.000000 0.000000 0.000000 0.000000 4.186093 1.919140 -41.315810 -2.716752 -2.201188 -1.400243 -1.183559 20.521561 -4.908774 0.000000 0.000000 0.000000 5.223103 3.162972 -40.576109 -2.795173 -5.050732 -2.510190 0.939000 1.394445 0.502995 0.000000 0.000000 0.000000
15.993171 69.343110 338.378429 0.619627 -2.426007 42.578537 -0.064463 1.226794 -42.557904 0.139079 0.493056 -0.004346 0.613500 1.966324 0.166900 0.000000 0.000000 0.000000 -2.738351 0.526770 -0.243482 -20.074221 -20.848128 0.567002 -20.741494 51.852656 15.470207 17.514845 7.708361 9.660043 0.000000 0.000000 0.000000 0.000000 0.000000 0.000000 12.588699 1.301454 -3.379646 -66.886658 13.652266 15.301065 -37.623880 -22.782176 -38.424848 -1.720754 25.368754 10.596753 0.000000 0.000000 0.000000 0.000000 0.000000 0.000000 3.513504 3.581648 -41.848977 -1.597925 -2.751200 -1.178587 -2.124510 17.306984 -3.921691 0.000000 0.000000 0.000000 4.766827 4.548954 -40.951950 -2.241533 -5.385890 -2.486808 1.333559 1.332065 -0.403773 0.000000 0.000000 0.000000
16.522728 69.517693 338.507404 1.380837 -2.641856 43.169616 -0.331366 1.418420 -43.107186 0.014144 0.479644 0.004251 1.251200 2.760004 0.139457 0.000000 0.000000 0.000000 -6.692124 1.596064 -0.648818 -34.153165 -19.173263 0.584136 -16.157847 65.877580 29.597924 23.941527 -7.449849 11.645202 0.000000 0.000000 0.000000 0.000000 0.000000 0.000000 14.288832 2.886543 -3.879595 -85.545593 12.010868 17.980845 -35.819461 -26.386549 -52.842417 -8.349385 25.927929 14.765380 0.000000 0.000000 0.000000 0.000000 0.000000 0.000000 2.499156 5.347451 -42.719426 0.431912 -2.969062 -0.548992 -2.966404 12.734540 -3.084542 0.000000 0.000000 0.000000 3.550498 5.553682 -41.862173 -1.421206 -4.533933 -1.982819 1.526113 0.701192 -0.607399 0.000000 0.000000 0.000000
17.115221 69.695695 338.509914 2.146020 -2.673819 44.086144 -0.560160 1.498667 -43.980641 -0.121792 0.427489 0.017314 1.744100 3.500243 0.105298 0.000000 0.000000 0.000000 -10.609631 3.848558 -0.984343 -54.233143 -10.295355 4.199993 6.733143 73.371583 41.134488 20.875002 -31.381056 6.177707 0.000000 0.000000 0.000000 0.000000 0.000000 0.000000 15.817731 4.912255 -4.355560 -100.558283 9.296647 17.671503 -35.111059 -27.076577 -65.621620 -12.985270 23.104411 14.734787 0.000000 0.000000 0.000000 0.000000 0.000000 0.000000 1.138511 6.940003 -43.968346 1.859831 -3.106461 -0.100833 -1.832846 10.211706 -2.591231 0.000000 0.000000 0.000000 2.874016 6.929993 -42.805538 -0.585126 -5.496221 -2.038573 1.466217 1.081964 -0.411194 0.000000 0.000000 0.000000
17.643847 69.850895 338.339829 2.740344 -2.463127 44.901769 -0.723885 1.407813 -44.767183 -0.250936 0.318022 0.031929 2.129754 4.029958 0.054631 0.000000 0.000000 0.000000 -14.907359 8.007748 -1.159831 -73.439583 0.793604 12.199969 27.401990 69.323513 59.845183 -0.953282 -49.719805 -15.830896 0.000000 0.000000 0.000000 0.000000 0.000000 0.000000 16.807011 7.509983 -4.648825 -111.366784 7.344654 15.146894 -35.296060 -27.394845 -78.014790 -13.036270 16.720167 4.279069 0.000000 0.000000 0.000000 0.000000 0.000000 0.000000 -0.253748 7.983441 -45.080481 3.085988 -3.003635 0.330134 -1.588628 8.784381 -2.247902 0.000000 0.000000 0.000000 2.023703 7.714520 -43.711633 0.001768 -5.992754 -2.000623 1.519654 1.346095 -0.126221 0.000000 0.000000 0.000000
17.850072 69.956666 338.082623 2.806129 -2.189299 45.415360 -0.671233 1.070387 -45.280678 -0.330602 0.081358 0.043418 2.441660 4.861664 0.083614 0.000000 0.000000 0.000000 -18.515049 14.049165 -0.905224 -85.064093 12.023816 22.119377 37.196548 57.018804 78.072450 -35.445217 -51.472694 -49.833823 0.000000 0.000000 0.000000 0.000000 0.000000 0.000000 17.472572 10.796044 -4.814319 -118.555473 6.106599 10.807369 -36.643996 -29.440467 -92.291015 -10.345589 14.013750 -3.511221 0.000000 0.000000 0.000000 0.000000 0.000000 0.000000 -0.957901 8.008360 -45.761162 3.587633 -2.728950 0.552508 -1.044842 8.532383 -2.238132 0.000000 0.000000 0.000000 1.832479 7.756205 -44.215790 0.093734 -6.660515 -2.154938 1.160095 2.118064 0.710996 0.000000 0.000000 0.000000
17.801554 69.892668 337.978064 2.487890 -2.119387 45.591804 -0.314970 0.724118 -45.472157 -0.322743 0.018373 0.052202 2.473055 5.022464 0.075654 0.000000 0.000000 0.000000 -22.706297 18.656329 -0.404481 -87.386850 18.538623 28.475012 36.236653 46.983608 87.063770 -49.896909 -50.043491 -64.608837 0.000000 0.000000 0.000000 0.000000 0.000000 0.000000 17.424557 14.424978 -4.639621 -122.297649 5.556467 5.263718 -39.196416 -29.789557 -104.210116 -1.006467 14.235402 -14.613254 0.000000 0.000000 0.000000 0.000000 0.000000 0.000000 -0.847975 7.637938 -45.976529 3.580527 -2.595501 0.577259 -0.789404 8.758492 -2.325042 0.000000 0.000000 0.000000 3.103236 7.777005 -43.990568 -0.633240 -8.497948 -2.961604 1.211447 3.007334 0.928453 0.000000 0.000000 0.000000
17.883168 69.745694 337.803351 2.503556 -1.845514 45.521630 -0.311972 0.607884 -45.406148 -0.253389 0.053941 0.060424 2.335435 4.943894 0.104291 0.000000 0.000000 0.000000 -26.733553 21.771627 0.160828 -91.372443 22.937489 35.486628 41.922242 37.744965 92.287102 -56.216792 -44.585701 -69.961767 0.000000 0.000000 0.000000 0.000000 0.000000 0.000000 17.627927 17.894713 -4.504233 -125.126969 5.681194 -0.185902 -38.421440 -31.719266 -110.343737 5.541216 18.282914 -17.777927 0.000000 0.000000 0.000000 0.000000 0.000000 0.000000 -1.410420 7.365241 -46.006775 3.759590 -2.276399 0.700483 1.090781 10.947403 -3.149669 0.000000 0.000000 0.000000 2.741982 7.398167 -43.973080 -0.678466 -8.249697 -2.881016 1.231498 3.003825 0.930794 0.000000 0.000000 0.000000
17.938053 69.572835 337.610636 2.489444 -1.491580 45.710041 -0.340578 0.477866 -45.601416 -0.223240 0.159558 0.063400 2.454903 4.893923 0.147299 0.000000 0.000000 0.000000 -34.826703 20.780948 0.533995 -94.450984 30.815496 58.317604 50.876337 19.452966 97.825647 -56.319840 -33.337303 -64.842834 0.000000 0.000000 0.000000 0.000000 0.000000 0.000000 17.894556 21.667354 -4.322504 -127.299198 5.836629 -6.684381 -39.016277 -34.181939 -118.548700 5.276404 24.614326 -13.593735 0.000000 0.000000 0.000000 0.000000 0.000000 0.000000 -1.906117 7.003175 -46.282348 3.874431 -1.994889 0.794524 1.525943 10.770971 -3.153654 0.000000 0.000000 0.000000 2.485853 6.935684 -44.174812 -0.839879 -8.271489 -2.913810 1.272900 3.194398 0.982089 0.000000 0.000000 0.000000
